<svg width="14" height="24" viewBox="0 0 14 24" fill="none" xmlns="http://www.w3.org/2000/svg">
<path d="M7.00052 0C3.56058 0 0.762217 2.7785 0.762217 6.19426C0.762217 9.60974 3.56058 12.387 7.00052 12.387C10.4403 12.387 13.2373 9.60974 13.2373 6.19426C13.2373 2.7785 10.4404 0 7.00052 0ZM7.00052 3.62926C8.42422 3.62926 9.58195 4.78046 9.58195 6.19426C9.58195 7.60745 8.42424 8.75777 7.00052 8.75777C5.57653 8.75777 4.41759 7.60747 4.41759 6.19426C4.41759 4.78046 5.57653 3.62926 7.00052 3.62926ZM1.85733 12.5977C1.24013 12.5882 0.63321 12.8903 0.281134 13.4475C-0.256913 14.2963 0.000836372 15.4164 0.85362 15.9502C1.98162 16.653 3.20565 17.1516 4.47501 17.439L0.988814 20.9025C0.27514 21.6115 0.275744 22.7599 0.989563 23.469C1.34734 23.8229 1.81397 24 2.28179 24C2.74912 24 3.21732 23.8226 3.57401 23.4683L6.99904 20.0655L10.4271 23.4683C11.1402 24.1771 12.2964 24.1771 13.0108 23.4683C13.7248 22.7597 13.7248 21.6101 13.0108 20.9025L9.52305 17.4398C10.7928 17.1524 12.0172 16.6535 13.1444 15.9503C13.9989 15.4164 14.2571 14.2951 13.7192 13.4475C13.1807 12.5985 12.0533 12.3428 11.1982 12.8775C8.64431 14.4728 5.35368 14.4717 2.80062 12.8775C2.50674 12.6937 2.18062 12.6028 1.85733 12.5978V12.5977Z" fill="#ED812B"/>
</svg>
