<svg width="60" height="60" viewBox="0 0 60 60" fill="none" xmlns="http://www.w3.org/2000/svg">
<path d="M55.2787 16.17L36.5287 5.85755C36.2518 5.70523 35.9409 5.62537 35.6249 5.62537C35.3089 5.62537 34.998 5.70523 34.7212 5.85755L15.9712 16.17C15.6772 16.3319 15.432 16.5697 15.2613 16.8586C15.0906 17.1475 15.0005 17.477 15.0005 17.8125C15.0005 18.1481 15.0906 18.4776 15.2613 18.7665C15.432 19.0554 15.6772 19.2932 15.9712 19.455L33.7499 29.2332V49.3313L28.0574 46.2L26.2499 49.4832L34.7212 54.1425C34.9979 54.2952 35.3088 54.3753 35.6249 54.3753C35.941 54.3753 36.2519 54.2952 36.5287 54.1425L55.2787 43.83C55.5727 43.6683 55.818 43.4305 55.9888 43.1416C56.1597 42.8527 56.2498 42.5232 56.2499 42.1875V17.8125C56.2498 17.4769 56.1597 17.1474 55.9888 16.8585C55.818 16.5696 55.5727 16.3318 55.2787 16.17ZM35.6249 9.6413L50.4843 17.8125L35.6249 25.9838L20.7655 17.8125L35.6249 9.6413ZM52.4999 41.0794L37.4999 49.3294V29.2313L52.4999 20.9813V41.0794Z" fill="white"/>
<path d="M18.75 30H3.75V26.25H18.75V30Z" fill="white"/>
<path d="M22.5 45H7.5V41.25H22.5V45Z" fill="white"/>
<path d="M26.25 37.5H11.25V33.75H26.25V37.5Z" fill="white"/>
</svg>
