<svg width="18" height="14" viewBox="0 0 18 14" fill="none" xmlns="http://www.w3.org/2000/svg">
<path d="M3.37508 0.333374H14.6251C15.3169 0.333329 15.9824 0.598002 16.4853 1.0731C16.9881 1.5482 17.2901 2.1977 17.3293 2.88837L17.3334 3.04171V10.9584C17.3335 11.6502 17.0688 12.3157 16.5937 12.8186C16.1186 13.3214 15.4691 13.6234 14.7784 13.6625L14.6251 13.6667H3.37508C2.6833 13.6668 2.01772 13.4021 1.51489 12.927C1.01205 12.4519 0.71008 11.8024 0.670915 11.1117L0.666748 10.9584V3.04171C0.666703 2.34993 0.931376 1.68435 1.40647 1.18152C1.88157 0.67868 2.53108 0.376706 3.22175 0.337541L3.37508 0.333374H14.6251H3.37508ZM16.0834 4.81087L9.29175 8.38587C9.21506 8.42638 9.13078 8.45049 9.04427 8.45666C8.95776 8.46283 8.87091 8.45093 8.78925 8.42171L8.70925 8.38671L1.91675 4.81171V10.9584C1.91676 11.3244 2.05439 11.677 2.30231 11.9462C2.55024 12.2154 2.89033 12.3816 3.25508 12.4117L3.37508 12.4167H14.6251C14.9912 12.4167 15.3439 12.2789 15.6132 12.0308C15.8824 11.7827 16.0485 11.4424 16.0784 11.0775L16.0834 10.9584V4.81087ZM14.6251 1.58337H3.37508C3.00909 1.58339 2.65648 1.72102 2.38726 1.96894C2.11803 2.21686 1.95186 2.55696 1.92175 2.92171L1.91675 3.04171V3.39921L9.00008 7.12671L16.0834 3.39837V3.04171C16.0834 2.67558 15.9456 2.32287 15.6975 2.05362C15.4494 1.78437 15.1091 1.61829 14.7442 1.58837L14.6251 1.58337Z" fill="white"/>
</svg>
