<svg width="16" height="16" viewBox="0 0 16 16" fill="none" xmlns="http://www.w3.org/2000/svg">
<path fill-rule="evenodd" clip-rule="evenodd" d="M8.35404 1.64598C8.4006 1.69242 8.43754 1.7476 8.46275 1.80834C8.48796 1.86909 8.50093 1.93421 8.50093 1.99998C8.50093 2.06575 8.48796 2.13087 8.46275 2.19161C8.43754 2.25236 8.4006 2.30753 8.35404 2.35398L2.70704 7.99998L8.35404 13.646C8.44793 13.7399 8.50067 13.8672 8.50067 14C8.50067 14.1328 8.44793 14.2601 8.35404 14.354C8.26015 14.4479 8.13281 14.5006 8.00004 14.5006C7.86726 14.5006 7.73993 14.4479 7.64604 14.354L1.64604 8.35398C1.59948 8.30753 1.56253 8.25236 1.53733 8.19161C1.51212 8.13087 1.49915 8.06575 1.49915 7.99998C1.49915 7.93421 1.51212 7.86909 1.53733 7.80834C1.56253 7.7476 1.59948 7.69242 1.64604 7.64598L7.64604 1.64598C7.69248 1.59942 7.74766 1.56247 7.80841 1.53727C7.86915 1.51206 7.93427 1.49908 8.00004 1.49908C8.06581 1.49908 8.13093 1.51206 8.19167 1.53727C8.25242 1.56247 8.30759 1.59942 8.35404 1.64598Z" fill="white"/>
<path fill-rule="evenodd" clip-rule="evenodd" d="M12.354 1.64598C12.4006 1.69242 12.4375 1.7476 12.4628 1.80834C12.488 1.86909 12.5009 1.93421 12.5009 1.99998C12.5009 2.06575 12.488 2.13087 12.4628 2.19161C12.4375 2.25236 12.4006 2.30753 12.354 2.35398L6.70704 7.99998L12.354 13.646C12.4005 13.6925 12.4374 13.7477 12.4626 13.8084C12.4877 13.8691 12.5007 13.9342 12.5007 14C12.5007 14.0657 12.4877 14.1308 12.4626 14.1916C12.4374 14.2523 12.4005 14.3075 12.354 14.354C12.3076 14.4005 12.2524 14.4373 12.1916 14.4625C12.1309 14.4877 12.0658 14.5006 12 14.5006C11.9343 14.5006 11.8692 14.4877 11.8085 14.4625C11.7477 14.4373 11.6925 14.4005 11.646 14.354L5.64604 8.35398C5.59948 8.30753 5.56253 8.25236 5.53733 8.19161C5.51212 8.13087 5.49915 8.06575 5.49915 7.99998C5.49915 7.93421 5.51212 7.86909 5.53733 7.80834C5.56253 7.7476 5.59948 7.69242 5.64604 7.64598L11.646 1.64598C11.6925 1.59942 11.7477 1.56247 11.8084 1.53727C11.8692 1.51206 11.9343 1.49908 12 1.49908C12.0658 1.49908 12.1309 1.51206 12.1917 1.53727C12.2524 1.56247 12.3076 1.59942 12.354 1.64598Z" fill="white"/>
</svg>
