<svg width="60" height="60" viewBox="0 0 60 60" fill="none" xmlns="http://www.w3.org/2000/svg">
<path d="M30 5C16.2 5 5 16.2 5 30C5 43.8 16.2 55 30 55C43.8 55 55 43.8 55 30C55 16.2 43.8 5 30 5ZM30 50C18.975 50 10 41.025 10 30C10 18.975 18.975 10 30 10C41.025 10 50 18.975 50 30C50 41.025 41.025 50 30 50ZM32.225 27.75C27.775 26.275 25.625 25.35 25.625 23C25.625 20.45 28.4 19.525 30.15 19.525C33.425 19.525 34.625 22 34.9 22.875L38.85 21.2C38.475 20.1 36.8 16.425 32.2 15.625V12.5H27.825V15.65C21.325 17.05 21.275 22.775 21.275 23.05C21.275 28.725 26.9 30.325 29.65 31.325C33.6 32.725 35.35 34 35.35 36.4C35.35 39.225 32.725 40.425 30.4 40.425C25.85 40.425 24.55 35.75 24.4 35.2L20.25 36.875C21.825 42.35 25.95 43.825 27.8 44.275V47.5H32.175V44.4C33.475 44.175 39.725 42.925 39.725 36.35C39.75 32.875 38.225 29.825 32.225 27.75Z" fill="white"/>
</svg>
