<svg width="32" height="53" viewBox="0 0 32 53" fill="none" xmlns="http://www.w3.org/2000/svg">
<path d="M25.6 3.27438C26.4487 3.27438 27.2626 3.61714 27.8627 4.22724C28.4629 4.83735 28.8 5.66483 28.8 6.52765V45.5668C28.8 46.4297 28.4629 47.2571 27.8627 47.8673C27.2626 48.4774 26.4487 48.8201 25.6 48.8201H6.4C5.55131 48.8201 4.73738 48.4774 4.13726 47.8673C3.53714 47.2571 3.2 46.4297 3.2 45.5668V6.52765C3.2 5.66483 3.53714 4.83735 4.13726 4.22724C4.73738 3.61714 5.55131 3.27438 6.4 3.27438H25.6ZM6.4 0.0211182C4.70261 0.0211182 3.07475 0.706626 1.87452 1.92684C0.674284 3.14705 0 4.80201 0 6.52765V45.5668C0 47.2925 0.674284 48.9474 1.87452 50.1677C3.07475 51.3879 4.70261 52.0734 6.4 52.0734H25.6C27.2974 52.0734 28.9252 51.3879 30.1255 50.1677C31.3257 48.9474 32 47.2925 32 45.5668V6.52765C32 4.80201 31.3257 3.14705 30.1255 1.92684C28.9252 0.706626 27.2974 0.0211182 25.6 0.0211182L6.4 0.0211182Z" fill="black"/>
<path d="M16 48.0693C16.5304 48.0693 17.0391 47.8584 17.4142 47.483C17.7893 47.1075 18 46.5983 18 46.0673C18 45.5364 17.7893 45.0271 17.4142 44.6517C17.0391 44.2762 16.5304 44.0653 16 44.0653C15.4696 44.0653 14.9609 44.2762 14.5858 44.6517C14.2107 45.0271 14 45.5364 14 46.0673C14 46.5983 14.2107 47.1075 14.5858 47.483C14.9609 47.8584 15.4696 48.0693 16 48.0693Z" fill="black"/>
</svg>
