<svg width="16" height="16" viewBox="0 0 16 16" fill="none" xmlns="http://www.w3.org/2000/svg">
<path fill-rule="evenodd" clip-rule="evenodd" d="M7.64596 14.354C7.5994 14.3076 7.56246 14.2524 7.53725 14.1917C7.51204 14.1309 7.49907 14.0658 7.49907 14C7.49907 13.9343 7.51204 13.8691 7.53725 13.8084C7.56246 13.7476 7.5994 13.6925 7.64596 13.646L13.293 8.00002L7.64596 2.35402C7.55208 2.26014 7.49933 2.1328 7.49933 2.00002C7.49933 1.86725 7.55208 1.73991 7.64596 1.64602C7.73985 1.55213 7.86719 1.49939 7.99996 1.49939C8.13274 1.49939 8.26008 1.55213 8.35396 1.64602L14.354 7.64602C14.4005 7.69247 14.4375 7.74764 14.4627 7.80839C14.4879 7.86913 14.5009 7.93425 14.5009 8.00002C14.5009 8.06579 14.4879 8.13091 14.4627 8.19166C14.4375 8.2524 14.4005 8.30758 14.354 8.35402L8.35396 14.354C8.30752 14.4006 8.25234 14.4375 8.19159 14.4627C8.13085 14.4879 8.06573 14.5009 7.99996 14.5009C7.93419 14.5009 7.86907 14.4879 7.80833 14.4627C7.74758 14.4375 7.69241 14.4006 7.64596 14.354Z" fill="white"/>
<path fill-rule="evenodd" clip-rule="evenodd" d="M3.64596 14.354C3.5994 14.3076 3.56246 14.2524 3.53725 14.1917C3.51204 14.1309 3.49907 14.0658 3.49907 14C3.49907 13.9343 3.51204 13.8691 3.53725 13.8084C3.56246 13.7476 3.5994 13.6925 3.64596 13.646L9.29296 8.00002L3.64596 2.35402C3.59947 2.30753 3.5626 2.25234 3.53744 2.1916C3.51228 2.13087 3.49933 2.06576 3.49933 2.00002C3.49933 1.93428 3.51228 1.86918 3.53744 1.80844C3.5626 1.7477 3.59947 1.69251 3.64596 1.64602C3.69245 1.59953 3.74764 1.56266 3.80838 1.5375C3.86912 1.51234 3.93422 1.49939 3.99996 1.49939C4.06571 1.49939 4.13081 1.51234 4.19155 1.5375C4.25229 1.56266 4.30747 1.59953 4.35396 1.64602L10.354 7.64602C10.4005 7.69247 10.4375 7.74764 10.4627 7.80839C10.4879 7.86913 10.5009 7.93425 10.5009 8.00002C10.5009 8.06579 10.4879 8.13091 10.4627 8.19166C10.4375 8.2524 10.4005 8.30758 10.354 8.35402L4.35396 14.354C4.30752 14.4006 4.25234 14.4375 4.19159 14.4627C4.13085 14.4879 4.06573 14.5009 3.99996 14.5009C3.93419 14.5009 3.86907 14.4879 3.80833 14.4627C3.74758 14.4375 3.69241 14.4006 3.64596 14.354Z" fill="white"/>
</svg>
