<svg width="60" height="60" viewBox="0 0 60 60" fill="none" xmlns="http://www.w3.org/2000/svg">
<path d="M54.5377 11.6031C54.3131 11.3465 54.0378 11.1391 53.7293 10.9938C53.4208 10.8484 53.0856 10.7683 52.7447 10.7585C47.4485 10.62 40.747 4.95697 36.3162 2.73466C33.5793 1.3662 31.7724 0.463889 30.4154 0.226197C30.1399 0.186049 29.86 0.186827 29.5847 0.228505C28.2277 0.466197 26.4208 1.3685 23.6862 2.73697C19.2554 4.95697 12.5539 10.62 7.25773 10.7585C6.91659 10.7689 6.5812 10.8492 6.27237 10.9944C5.96353 11.1397 5.68783 11.3469 5.46235 11.6031C4.99498 12.1319 4.75384 12.823 4.79081 13.5277C5.9285 36.6577 14.2247 50.9724 28.7816 59.2916C29.16 59.5062 29.58 59.617 29.9977 59.617C30.4154 59.617 30.8354 59.5062 31.2162 59.2916C45.7731 50.9724 54.067 36.6577 55.207 13.5277C55.2461 12.8231 55.0056 12.1315 54.5377 11.6031ZM42.9624 20.7L30.6785 38.827C30.2377 39.4777 29.5454 39.9093 28.86 39.9093C28.1723 39.9093 27.4085 39.5331 26.9262 39.0508L18.2677 30.39C17.985 30.1063 17.8263 29.7221 17.8263 29.3216C17.8263 28.9211 17.985 28.5369 18.2677 28.2531L20.407 26.1093C20.6913 25.8277 21.0753 25.6698 21.4754 25.6698C21.8756 25.6698 22.2596 25.8277 22.5439 26.1093L28.1747 31.74L37.957 17.3008C38.1833 16.9704 38.5312 16.7429 38.9246 16.6681C39.3181 16.5933 39.7252 16.6773 40.057 16.9016L42.5608 18.6C42.8916 18.826 43.1195 19.1737 43.1948 19.5672C43.27 19.9607 43.1864 20.368 42.9624 20.7Z" fill="white"/>
</svg>
