<svg width="38" height="22" viewBox="0 0 38 22" fill="none" xmlns="http://www.w3.org/2000/svg">
<path fill-rule="evenodd" clip-rule="evenodd" d="M37.1284 1.48971C37.3912 0.631714 37.1284 0 35.8697 0H31.7135C30.6559 0 30.1682 0.545286 29.9038 1.14714C29.9038 1.14714 27.7901 6.16943 24.7961 9.43171C23.8271 10.3777 23.3869 10.6779 22.8581 10.6779C22.5937 10.6779 22.1963 10.3777 22.1963 9.51814V1.48971C22.1963 0.458857 21.905 0 21.0246 0H14.4888C13.8285 0 13.4311 0.477714 13.4311 0.931857C13.4311 1.90771 14.9289 2.134 15.0825 4.88086V10.8491C15.0825 12.1581 14.8403 12.3954 14.3114 12.3954C12.9023 12.3954 9.47447 7.34957 7.43993 1.57614C7.04569 0.452571 6.64669 0 5.5843 0H1.42497C0.237495 0 0 0.545286 0 1.14714C0 2.21886 1.40914 7.54286 6.56278 14.5844C9.99854 19.393 14.8355 22 19.2418 22C21.8844 22 22.2105 21.4217 22.2105 20.4239V16.7891C22.2105 15.631 22.4607 15.4 23.2983 15.4C23.9157 15.4 24.9718 15.7017 27.4386 18.0196C30.2569 20.768 30.7208 22 32.3072 22H36.4634C37.6509 22 38.2462 21.4217 37.9042 20.2777C37.5274 19.14 36.1816 17.4884 34.3972 15.5289C33.4282 14.4131 31.9747 13.211 31.533 12.6091C30.9171 11.8376 31.0928 11.4934 31.533 10.8067C31.533 10.8067 36.5996 3.85157 37.1268 1.48971H37.1284Z" fill="#597DA3"/>
</svg>
