<svg width="33" height="23" viewBox="0 0 33 23" fill="none" xmlns="http://www.w3.org/2000/svg">
<path d="M32.3113 3.59283C32.1234 2.89711 31.7551 2.26266 31.2432 1.75297C30.7313 1.24327 30.0937 0.876217 29.3943 0.688535C26.8199 1.3971e-07 16.5 0 16.5 0C16.5 0 6.18013 -1.3971e-07 3.60569 0.684873C2.90599 0.871945 2.2681 1.2388 1.75609 1.74858C1.24408 2.25837 0.87597 2.89315 0.688728 3.58917C-1.40497e-07 6.15287 0 11.5 0 11.5C0 11.5 -1.40497e-07 16.8471 0.688728 19.4072C1.06808 20.8209 2.18772 21.9342 3.60569 22.3115C6.18013 23 16.5 23 16.5 23C16.5 23 26.8199 23 29.3943 22.3115C30.816 21.9342 31.9319 20.8209 32.3113 19.4072C33 16.8471 33 11.5 33 11.5C33 11.5 33 6.15287 32.3113 3.59283ZM13.2221 16.4076V6.59236L21.7667 11.4634L13.2221 16.4076Z" fill="#CD201F"/>
</svg>
